<svg id="Layer_1" data-name="Layer 1" xmlns="http://www.w3.org/2000/svg" viewBox="0 0 117.3 401.4"><defs><style>.cls-1{fill:none;}.cls-2{fill:#9970ab;}.cls-3{fill:#c2a5cf;}.cls-4{fill:#e7d4e8;}.cls-5{fill:#f7f7f7;}.cls-6{fill:#d9f0d3;}.cls-7{fill:#a6dba0;}.cls-8{fill:#5aae61;}.cls-9{fill:#1b7837;}.cls-10,.cls-11,.cls-13,.cls-14{isolation:isolate;}.cls-10{font-size:8.8px;}.cls-10,.cls-11,.cls-14{font-family:ArialMT, Arial;}.cls-11{font-size:11px;}.cls-12{stroke:#000;stroke-linecap:round;stroke-linejoin:round;stroke-width:0.71px;}.cls-14{font-size:10px;}</style></defs><rect class="cls-1" x="-600.8" y="-98.9" width="792" height="612"/><circle class="cls-2" cx="24.6" cy="40.4" r="3"/><circle class="cls-3" cx="24.6" cy="58.3" r="3"/><circle class="cls-4" cx="24.6" cy="75.2" r="3"/><circle class="cls-5" cx="24.6" cy="93.1" r="3"/><circle class="cls-6" cx="24.6" cy="110" r="3"/><circle class="cls-7" cx="24.6" cy="127.9" r="3"/><circle class="cls-8" cx="24.6" cy="144.8" r="3"/><circle class="cls-9" cx="24.6" cy="161.7" r="3"/><text class="cls-10" transform="translate(33.78 43.996)">-50 or less</text><text class="cls-10" transform="translate(33.78 61.276)">-50 to -15</text><text class="cls-10" transform="translate(33.78 78.556)">-15 to -5</text><text class="cls-10" transform="translate(33.78 95.836)">-5 to +5</text><text class="cls-10" transform="translate(33.78 113.116)">+5 to +15</text><text class="cls-10" transform="translate(33.78 130.396)">+15 to +50</text><path class="cls-1" d="M33.8,140.1H86.9a2.634,2.634,0,0,1,1.5,4.8l-7.9,5.6H33.8Z"/><text class="cls-10" transform="translate(33.78 147.676)">+50 to +100</text><rect class="cls-1" x="33.8" y="157.4" width="55.7" height="10.4"/><text class="cls-10" transform="translate(33.78 164.956)">+100 or more </text><polygon class="cls-1" points="13 201 77.3 202 77.3 216 13 216 13 201"/><text class="cls-11" transform="translate(13.02 210.466)">Population</text><circle class="cls-12" cx="22.7" cy="219.8" r="1.7"/><circle class="cls-12" cx="22.7" cy="243.2" r="2.7"/><circle class="cls-12" cx="22.7" cy="266.6" r="3.7"/><circle class="cls-12" cx="22.7" cy="289.9" r="4.6"/><circle class="cls-12" cx="22.7" cy="313.3" r="6.1"/><circle class="cls-12" cx="22.7" cy="336.6" r="7.5"/><circle class="cls-12" cx="22.7" cy="360" r="8.4"/><circle class="cls-12" cx="22.7" cy="383.3" r="9.2" transform="translate(-3.909 0.252) rotate(-0.585)"/><polygon class="cls-1" points="39.9 215.1 60.4 215.1 60.8 225.5 39.9 225.5 39.9 215.1"/><g class="cls-13"><text class="cls-10" transform="translate(39.86 222.676)">&lt;50</text><text class="cls-10" transform="translate(55.56 222.676)">0</text></g><text class="cls-10" transform="translate(39.86 246.026)">&lt;1,000</text><text class="cls-10" transform="translate(39.86 269.386)">&lt;2,000</text><text class="cls-10" transform="translate(39.86 292.746)">&lt;3,000</text><text class="cls-10" transform="translate(39.86 316.096)">&lt;6,000</text><text class="cls-10" transform="translate(39.86 339.456)">&lt;8,000</text><rect class="cls-1" x="39.9" y="355.3" width="32.9" height="10.4"/><text class="cls-10" transform="translate(39.86 362.816)">&lt;10,000</text><g class="cls-13"><text class="cls-14" transform="translate(13.538 16.745)">Percent Change from </text><text class="cls-14" transform="translate(13.538 28.745)">Previous Decade </text></g><rect class="cls-1" x="39.4" y="378.1" width="33.9" height="10.4"/><text class="cls-10" transform="translate(39.36 385.684)">&gt;10,000</text></svg>