<svg id="Layer_1" data-name="Layer 1" xmlns="http://www.w3.org/2000/svg" viewBox="0 0 117.293 401.441"><defs><style>.cls-1{fill:none;}.cls-2{fill:#9970ab;}.cls-12,.cls-2,.cls-3,.cls-4,.cls-5,.cls-6,.cls-7,.cls-8,.cls-9{stroke:#000;stroke-linecap:round;stroke-linejoin:round;}.cls-2,.cls-3,.cls-4,.cls-5,.cls-6,.cls-7,.cls-8,.cls-9{stroke-width:0.5px;}.cls-3{fill:#c2a5cf;}.cls-4{fill:#e7d4e8;}.cls-5{fill:#f7f7f7;}.cls-6{fill:#d9f0d3;}.cls-7{fill:#a6dba0;}.cls-8{fill:#5aae61;}.cls-9{fill:#1b7837;}.cls-10,.cls-11{isolation:isolate;}.cls-10{font-size:8.8px;}.cls-10,.cls-11,.cls-14{font-family:ArialMT, Arial;}.cls-11{font-size:11px;}.cls-12{stroke-width:0.71px;}.cls-13{letter-spacing:0.028em;}.cls-14{font-size:10px;}</style></defs><rect class="cls-1" x="-600.81" y="-98.924" width="792" height="612"/><circle class="cls-2" cx="24.574" cy="40.384" r="3.036"/><circle class="cls-3" cx="24.574" cy="58.288" r="3.036"/><circle class="cls-4" cx="24.574" cy="75.192" r="3.036"/><circle class="cls-5" cx="24.574" cy="93.095" r="3.036"/><circle class="cls-6" cx="24.574" cy="109.999" r="3.036"/><circle class="cls-7" cx="24.574" cy="127.903" r="3.036"/><circle class="cls-8" cx="24.574" cy="144.806" r="3.036"/><circle class="cls-9" cx="24.574" cy="161.71" r="3.036"/><text class="cls-10" transform="translate(33.78 43.996)">-50 or less</text><text class="cls-10" transform="translate(33.78 61.276)">-50 to -15</text><text class="cls-10" transform="translate(33.78 78.556)">-15 to -5</text><text class="cls-10" transform="translate(33.78 95.836)">-5 to +5</text><text class="cls-10" transform="translate(33.78 113.116)">+5 to +15</text><text class="cls-10" transform="translate(33.78 130.396)">+15 to +50</text><text class="cls-10" transform="translate(33.78 147.676)">+50 to +100</text><text class="cls-10" transform="translate(33.78 164.956)">+100 or more </text><text class="cls-11" transform="translate(13.02 210.466)">Population</text><circle class="cls-12" cx="22.7" cy="219.836" r="1.7"/><circle class="cls-12" cx="22.7" cy="243.196" r="2.68"/><circle class="cls-12" cx="22.7" cy="266.556" r="3.65"/><circle class="cls-12" cx="22.7" cy="289.906" r="4.61"/><circle class="cls-12" cx="22.7" cy="313.266" r="6.06"/><circle class="cls-12" cx="22.7" cy="336.626" r="7.47"/><circle class="cls-12" cx="22.7" cy="359.986" r="8.42"/><circle class="cls-12" cx="22.7" cy="383.336" r="9.15"/><text class="cls-10" transform="translate(39.86 222.676)"><tspan class="cls-13">&lt;50</tspan><tspan x="15.678" y="0">0</tspan></text><text class="cls-10" transform="translate(39.86 246.026)">&lt;1,000</text><text class="cls-10" transform="translate(39.86 269.386)">&lt;2,000</text><text class="cls-10" transform="translate(39.86 292.746)">&lt;3,000</text><text class="cls-10" transform="translate(39.86 316.096)">&lt;6,000</text><text class="cls-10" transform="translate(39.86 339.456)">&lt;8,000</text><text class="cls-10" transform="translate(39.86 362.816)">&lt;10,000</text><text class="cls-14" transform="translate(13.538 16.745)">Percent Change from <tspan x="0" y="12">Previous Decade </tspan></text><text class="cls-10" transform="translate(39.36 385.684)">&gt;10,000</text></svg>